<!DOCTYPE svg PUBLIC "-//W3C//DTD SVG 1.1//EN"
  "http://www.w3.org/Graphics/SVG/1.1/DTD/svg11.dtd">
<svg xmlns:xlink="http://www.w3.org/1999/xlink" width="465.88975pt" height="309.211pt" viewBox="0 0 465.88975 309.211" xmlns="http://www.w3.org/2000/svg" version="1.1">
 <metadata>
  <rdf:RDF xmlns:dc="http://purl.org/dc/elements/1.1/" xmlns:cc="http://creativecommons.org/ns#" xmlns:rdf="http://www.w3.org/1999/02/22-rdf-syntax-ns#">
   <cc:Work>
    <dc:type rdf:resource="http://purl.org/dc/dcmitype/StillImage"/>
    <dc:date>2023-04-05T22:24:23.493292</dc:date>
    <dc:format>image/svg+xml</dc:format>
    <dc:creator>
     <cc:Agent>
      <dc:title>Matplotlib v3.5.2, https://matplotlib.org/</dc:title>
     </cc:Agent>
    </dc:creator>
   </cc:Work>
  </rdf:RDF>
 </metadata>
 <defs>
  <style type="text/css">*{stroke-linejoin: round; stroke-linecap: butt}</style>
 </defs>
 <g id="figure_1">
  <g id="patch_1">
   <path d="M 0 309.211 
L 465.88975 309.211 
L 465.88975 0 
L 0 0 
z
" style="fill: #f0f0f0"/>
  </g>
  <g id="axes_1">
   <g id="patch_2">
    <path d="M 57.79375 287.136 
L 458.68975 287.136 
L 458.68975 7.2 
L 57.79375 7.2 
z
" style="fill: #f0f0f0"/>
   </g>
   <g id="matplotlib.axis_1">
    <g id="xtick_1">
     <g id="line2d_1">
      <path d="M 101.150841 287.136 
L 101.150841 7.2 
" clip-path="url(#pf0ff58abfa)" style="fill: none; stroke: #cbcbcb"/>
     </g>
     <g id="line2d_2"/>
     <g id="text_1">
      <!-- angry -->
      <g transform="translate(83.650841 300.261)scale(0.14 -0.14)">
       <defs>
        <path id="SimHei-61" d="M 2875 125 
L 2275 125 
Q 2225 175 2200 262 
Q 2175 350 2175 475 
Q 2000 275 1750 175 
Q 1500 75 1225 75 
Q 825 75 550 275 
Q 275 475 275 850 
Q 275 1225 525 1450 
Q 775 1675 1300 1750 
Q 1650 1800 1912 1875 
Q 2175 1950 2175 2075 
Q 2175 2225 2062 2375 
Q 1950 2525 1575 2525 
Q 1275 2525 1137 2412 
Q 1000 2300 950 2100 
L 400 2100 
Q 450 2500 762 2737 
Q 1075 2975 1575 2975 
Q 2125 2975 2400 2725 
Q 2675 2475 2675 2025 
L 2675 650 
Q 2675 500 2725 375 
Q 2775 250 2875 125 
z
M 2175 1050 
L 2175 1550 
Q 2025 1500 1887 1462 
Q 1750 1425 1425 1375 
Q 1050 1325 937 1200 
Q 825 1075 825 900 
Q 825 750 937 637 
Q 1050 525 1275 525 
Q 1500 525 1762 650 
Q 2025 775 2175 1050 
z
" transform="scale(0.015625)"/>
        <path id="SimHei-6e" d="M 2800 125 
L 2300 125 
L 2300 1925 
Q 2300 2225 2150 2400 
Q 2000 2575 1750 2575 
Q 1425 2575 1137 2237 
Q 850 1900 850 1400 
L 850 125 
L 350 125 
L 350 2925 
L 850 2925 
L 850 2400 
Q 1050 2675 1287 2825 
Q 1525 2975 1900 2975 
Q 2350 2975 2575 2725 
Q 2800 2475 2800 2100 
L 2800 125 
z
" transform="scale(0.015625)"/>
        <path id="SimHei-67" d="M 2975 2500 
Q 2800 2550 2637 2562 
Q 2475 2575 2300 2525 
Q 2375 2450 2425 2337 
Q 2475 2225 2475 2000 
Q 2475 1575 2187 1300 
Q 1900 1025 1475 1025 
Q 1375 1025 1212 1062 
Q 1050 1100 950 1150 
Q 875 1100 850 1050 
Q 825 1000 825 925 
Q 825 800 1000 737 
Q 1175 675 1625 675 
Q 2350 675 2612 475 
Q 2875 275 2875 -25 
Q 2875 -425 2487 -612 
Q 2100 -800 1575 -800 
Q 900 -800 575 -625 
Q 250 -450 250 -150 
Q 250 0 375 150 
Q 500 300 700 400 
Q 550 475 462 587 
Q 375 700 375 875 
Q 375 1025 487 1137 
Q 600 1250 750 1325 
Q 625 1450 550 1625 
Q 475 1800 475 2000 
Q 475 2425 762 2700 
Q 1050 2975 1475 2975 
Q 1700 2975 1862 2912 
Q 2025 2850 2150 2725 
Q 2350 2875 2550 2937 
Q 2750 3000 2975 2975 
L 2975 2500 
z
M 1975 2000 
Q 1975 2250 1850 2400 
Q 1725 2550 1475 2550 
Q 1225 2550 1100 2400 
Q 975 2250 975 2000 
Q 975 1750 1100 1600 
Q 1225 1450 1475 1450 
Q 1725 1450 1850 1600 
Q 1975 1750 1975 2000 
z
M 2400 -75 
Q 2400 25 2287 125 
Q 2175 225 1725 225 
Q 1625 225 1450 237 
Q 1275 250 1050 275 
Q 850 200 775 100 
Q 700 0 700 -100 
Q 700 -250 900 -350 
Q 1100 -450 1600 -450 
Q 2025 -450 2212 -337 
Q 2400 -225 2400 -75 
z
" transform="scale(0.015625)"/>
        <path id="SimHei-72" d="M 2500 2425 
Q 2025 2500 1700 2287 
Q 1375 2075 1150 1550 
L 1150 125 
L 650 125 
L 650 2925 
L 1150 2925 
L 1150 2200 
Q 1375 2600 1712 2787 
Q 2050 2975 2500 2975 
L 2500 2425 
z
" transform="scale(0.015625)"/>
        <path id="SimHei-79" d="M 2900 2925 
L 1750 -100 
Q 1650 -450 1450 -625 
Q 1250 -800 950 -800 
Q 825 -800 712 -787 
Q 600 -775 500 -725 
L 500 -225 
Q 600 -275 700 -300 
Q 800 -325 875 -325 
Q 1075 -325 1150 -262 
Q 1225 -200 1300 25 
L 200 2925 
L 750 2925 
L 1550 725 
L 1575 725 
L 2350 2925 
L 2900 2925 
z
" transform="scale(0.015625)"/>
       </defs>
       <use xlink:href="#SimHei-61"/>
       <use xlink:href="#SimHei-6e" x="50"/>
       <use xlink:href="#SimHei-67" x="100"/>
       <use xlink:href="#SimHei-72" x="150"/>
       <use xlink:href="#SimHei-79" x="200"/>
      </g>
     </g>
    </g>
    <g id="xtick_2">
     <g id="line2d_3">
      <path d="M 163.987205 287.136 
L 163.987205 7.2 
" clip-path="url(#pf0ff58abfa)" style="fill: none; stroke: #cbcbcb"/>
     </g>
     <g id="line2d_4"/>
     <g id="text_2">
      <!-- happy -->
      <g transform="translate(146.487205 300.261)scale(0.14 -0.14)">
       <defs>
        <path id="SimHei-68" d="M 2800 125 
L 2300 125 
L 2300 1925 
Q 2300 2225 2150 2400 
Q 2000 2575 1750 2575 
Q 1425 2575 1137 2237 
Q 850 1900 850 1400 
L 850 125 
L 350 125 
L 350 4400 
L 850 4400 
L 850 2400 
Q 1050 2675 1287 2825 
Q 1525 2975 1900 2975 
Q 2350 2975 2575 2725 
Q 2800 2475 2800 2100 
L 2800 125 
z
" transform="scale(0.015625)"/>
        <path id="SimHei-70" d="M 2825 1525 
Q 2825 800 2475 425 
Q 2125 50 1625 50 
Q 1350 50 1150 162 
Q 950 275 800 500 
L 800 -800 
L 300 -800 
L 300 2925 
L 800 2925 
L 800 2550 
Q 950 2775 1150 2875 
Q 1350 2975 1625 2975 
Q 2125 2975 2475 2612 
Q 2825 2250 2825 1525 
z
M 2275 1525 
Q 2275 2000 2087 2262 
Q 1900 2525 1525 2525 
Q 1225 2525 1012 2262 
Q 800 2000 800 1525 
Q 800 1050 1012 775 
Q 1225 500 1525 500 
Q 1900 500 2087 775 
Q 2275 1050 2275 1525 
z
" transform="scale(0.015625)"/>
       </defs>
       <use xlink:href="#SimHei-68"/>
       <use xlink:href="#SimHei-61" x="50"/>
       <use xlink:href="#SimHei-70" x="100"/>
       <use xlink:href="#SimHei-70" x="150"/>
       <use xlink:href="#SimHei-79" x="200"/>
      </g>
     </g>
    </g>
    <g id="xtick_3">
     <g id="line2d_5">
      <path d="M 226.823568 287.136 
L 226.823568 7.2 
" clip-path="url(#pf0ff58abfa)" style="fill: none; stroke: #cbcbcb"/>
     </g>
     <g id="line2d_6"/>
     <g id="text_3">
      <!-- sad -->
      <g transform="translate(216.323568 300.261)scale(0.14 -0.14)">
       <defs>
        <path id="SimHei-73" d="M 2750 900 
Q 2750 500 2437 287 
Q 2125 75 1650 75 
Q 1050 75 725 312 
Q 400 550 400 1000 
L 900 1000 
Q 900 700 1112 600 
Q 1325 500 1625 500 
Q 1925 500 2075 612 
Q 2225 725 2225 900 
Q 2225 1025 2100 1150 
Q 1975 1275 1475 1350 
Q 900 1425 687 1637 
Q 475 1850 475 2200 
Q 475 2500 762 2737 
Q 1050 2975 1600 2975 
Q 2100 2975 2387 2750 
Q 2675 2525 2675 2150 
L 2175 2150 
Q 2175 2375 2012 2462 
Q 1850 2550 1600 2550 
Q 1275 2550 1137 2437 
Q 1000 2325 1000 2175 
Q 1000 2000 1125 1900 
Q 1250 1800 1650 1750 
Q 2300 1650 2525 1437 
Q 2750 1225 2750 900 
z
" transform="scale(0.015625)"/>
        <path id="SimHei-64" d="M 2750 125 
L 2250 125 
L 2250 500 
Q 2100 275 1900 175 
Q 1700 75 1425 75 
Q 925 75 575 437 
Q 225 800 225 1525 
Q 225 2250 575 2625 
Q 925 3000 1425 3000 
Q 1700 3000 1900 2887 
Q 2100 2775 2250 2550 
L 2250 4400 
L 2750 4400 
L 2750 125 
z
M 2250 1525 
Q 2250 2000 2037 2275 
Q 1825 2550 1525 2550 
Q 1150 2550 962 2275 
Q 775 2000 775 1525 
Q 775 1050 962 787 
Q 1150 525 1525 525 
Q 1825 525 2037 787 
Q 2250 1050 2250 1525 
z
" transform="scale(0.015625)"/>
       </defs>
       <use xlink:href="#SimHei-73"/>
       <use xlink:href="#SimHei-61" x="50"/>
       <use xlink:href="#SimHei-64" x="100"/>
      </g>
     </g>
    </g>
    <g id="xtick_4">
     <g id="line2d_7">
      <path d="M 289.659932 287.136 
L 289.659932 7.2 
" clip-path="url(#pf0ff58abfa)" style="fill: none; stroke: #cbcbcb"/>
     </g>
     <g id="line2d_8"/>
     <g id="text_4">
      <!-- neutral -->
      <g transform="translate(265.159932 300.261)scale(0.14 -0.14)">
       <defs>
        <path id="SimHei-65" d="M 2850 1075 
Q 2800 625 2450 350 
Q 2100 75 1625 75 
Q 1025 75 637 462 
Q 250 850 250 1525 
Q 250 2200 637 2587 
Q 1025 2975 1625 2975 
Q 2150 2975 2487 2637 
Q 2825 2300 2825 1525 
L 800 1525 
Q 800 975 1037 750 
Q 1275 525 1625 525 
Q 1900 525 2075 662 
Q 2250 800 2300 1075 
L 2850 1075 
z
M 2250 1925 
Q 2200 2275 2025 2412 
Q 1850 2550 1575 2550 
Q 1325 2550 1125 2412 
Q 925 2275 825 1925 
L 2250 1925 
z
" transform="scale(0.015625)"/>
        <path id="SimHei-75" d="M 2800 125 
L 2300 125 
L 2300 650 
Q 2100 375 1862 225 
Q 1625 75 1250 75 
Q 800 75 575 325 
Q 350 575 350 950 
L 350 2925 
L 850 2925 
L 850 1125 
Q 850 825 1000 650 
Q 1150 475 1400 475 
Q 1725 475 2012 812 
Q 2300 1150 2300 1650 
L 2300 2925 
L 2800 2925 
L 2800 125 
z
" transform="scale(0.015625)"/>
        <path id="SimHei-74" d="M 2750 200 
Q 2625 150 2462 112 
Q 2300 75 2025 75 
Q 1575 75 1300 325 
Q 1025 575 1025 1025 
L 1025 2525 
L 175 2525 
L 175 2925 
L 1025 2925 
L 1025 3900 
L 1525 3900 
L 1525 2925 
L 2550 2925 
L 2550 2525 
L 1525 2525 
L 1525 1000 
Q 1525 800 1625 662 
Q 1725 525 2000 525 
Q 2275 525 2450 575 
Q 2625 625 2750 700 
L 2750 200 
z
" transform="scale(0.015625)"/>
        <path id="SimHei-6c" d="M 1825 125 
L 1325 125 
L 1325 4400 
L 1825 4400 
L 1825 125 
z
" transform="scale(0.015625)"/>
       </defs>
       <use xlink:href="#SimHei-6e"/>
       <use xlink:href="#SimHei-65" x="50"/>
       <use xlink:href="#SimHei-75" x="100"/>
       <use xlink:href="#SimHei-74" x="150"/>
       <use xlink:href="#SimHei-72" x="200"/>
       <use xlink:href="#SimHei-61" x="250"/>
       <use xlink:href="#SimHei-6c" x="300"/>
      </g>
     </g>
    </g>
    <g id="xtick_5">
     <g id="line2d_9">
      <path d="M 352.496295 287.136 
L 352.496295 7.2 
" clip-path="url(#pf0ff58abfa)" style="fill: none; stroke: #cbcbcb"/>
     </g>
     <g id="line2d_10"/>
     <g id="text_5">
      <!-- fear -->
      <g transform="translate(338.496295 300.261)scale(0.14 -0.14)">
       <defs>
        <path id="SimHei-66" d="M 2850 3825 
Q 2725 3900 2550 3950 
Q 2375 4000 2100 4000 
Q 1825 4000 1725 3862 
Q 1625 3725 1625 3525 
L 1625 2925 
L 2650 2925 
L 2650 2525 
L 1625 2525 
L 1625 125 
L 1125 125 
L 1125 2525 
L 275 2525 
L 275 2925 
L 1125 2925 
L 1125 3500 
Q 1125 3950 1400 4200 
Q 1675 4450 2125 4450 
Q 2400 4450 2562 4412 
Q 2725 4375 2850 4325 
L 2850 3825 
z
" transform="scale(0.015625)"/>
       </defs>
       <use xlink:href="#SimHei-66"/>
       <use xlink:href="#SimHei-65" x="50"/>
       <use xlink:href="#SimHei-61" x="100"/>
       <use xlink:href="#SimHei-72" x="150"/>
      </g>
     </g>
    </g>
    <g id="xtick_6">
     <g id="line2d_11">
      <path d="M 415.332659 287.136 
L 415.332659 7.2 
" clip-path="url(#pf0ff58abfa)" style="fill: none; stroke: #cbcbcb"/>
     </g>
     <g id="line2d_12"/>
     <g id="text_6">
      <!-- surprise -->
      <g transform="translate(387.332659 300.261)scale(0.14 -0.14)">
       <defs>
        <path id="SimHei-69" d="M 1800 3725 
L 1300 3725 
L 1300 4375 
L 1800 4375 
L 1800 3725 
z
M 1800 125 
L 1300 125 
L 1300 2925 
L 1800 2925 
L 1800 125 
z
" transform="scale(0.015625)"/>
       </defs>
       <use xlink:href="#SimHei-73"/>
       <use xlink:href="#SimHei-75" x="50"/>
       <use xlink:href="#SimHei-72" x="100"/>
       <use xlink:href="#SimHei-70" x="150"/>
       <use xlink:href="#SimHei-72" x="200"/>
       <use xlink:href="#SimHei-69" x="250"/>
       <use xlink:href="#SimHei-73" x="300"/>
       <use xlink:href="#SimHei-65" x="350"/>
      </g>
     </g>
    </g>
   </g>
   <g id="matplotlib.axis_2">
    <g id="ytick_1">
     <g id="line2d_13">
      <path d="M 57.79375 287.136 
L 458.68975 287.136 
" clip-path="url(#pf0ff58abfa)" style="fill: none; stroke: #cbcbcb"/>
     </g>
     <g id="line2d_14"/>
     <g id="text_7">
      <!-- 0 -->
      <g transform="translate(47.29375 291.9485)scale(0.14 -0.14)">
       <defs>
        <path id="SimHei-30" d="M 225 2537 
Q 250 3200 412 3587 
Q 575 3975 875 4225 
Q 1175 4475 1612 4475 
Q 2050 4475 2375 4112 
Q 2700 3750 2800 3200 
Q 2900 2650 2862 1937 
Q 2825 1225 2612 775 
Q 2400 325 1975 150 
Q 1550 -25 1125 187 
Q 700 400 525 750 
Q 350 1100 275 1487 
Q 200 1875 225 2537 
z
M 750 2687 
Q 675 2000 800 1462 
Q 925 925 1212 700 
Q 1500 475 1800 612 
Q 2100 750 2237 1162 
Q 2375 1575 2375 2062 
Q 2375 2550 2337 2950 
Q 2300 3350 2112 3675 
Q 1925 4000 1612 4012 
Q 1300 4025 1062 3700 
Q 825 3375 750 2687 
z
" transform="scale(0.015625)"/>
       </defs>
       <use xlink:href="#SimHei-30"/>
      </g>
     </g>
    </g>
    <g id="ytick_2">
     <g id="line2d_15">
      <path d="M 57.79375 250.388141 
L 458.68975 250.388141 
" clip-path="url(#pf0ff58abfa)" style="fill: none; stroke: #cbcbcb"/>
     </g>
     <g id="line2d_16"/>
     <g id="text_8">
      <!-- 200 -->
      <g transform="translate(33.29375 255.200641)scale(0.14 -0.14)">
       <defs>
        <path id="SimHei-32" d="M 300 250 
Q 325 625 650 925 
Q 975 1225 1475 1862 
Q 1975 2500 2125 2850 
Q 2275 3200 2237 3450 
Q 2200 3700 2000 3862 
Q 1800 4025 1537 4000 
Q 1275 3975 1037 3800 
Q 800 3625 675 3275 
L 200 3350 
Q 400 3925 712 4187 
Q 1025 4450 1450 4475 
Q 1700 4500 1900 4462 
Q 2100 4425 2312 4287 
Q 2525 4150 2662 3875 
Q 2800 3600 2762 3212 
Q 2725 2825 2375 2287 
Q 2025 1750 1025 600 
L 2825 600 
L 2825 150 
L 300 150 
L 300 250 
z
" transform="scale(0.015625)"/>
       </defs>
       <use xlink:href="#SimHei-32"/>
       <use xlink:href="#SimHei-30" x="50"/>
       <use xlink:href="#SimHei-30" x="100"/>
      </g>
     </g>
    </g>
    <g id="ytick_3">
     <g id="line2d_17">
      <path d="M 57.79375 213.640283 
L 458.68975 213.640283 
" clip-path="url(#pf0ff58abfa)" style="fill: none; stroke: #cbcbcb"/>
     </g>
     <g id="line2d_18"/>
     <g id="text_9">
      <!-- 400 -->
      <g transform="translate(33.29375 218.452783)scale(0.14 -0.14)">
       <defs>
        <path id="SimHei-34" d="M 2000 1100 
L 75 1100 
L 75 1525 
L 2100 4450 
L 2475 4450 
L 2475 1525 
L 3075 1525 
L 3075 1100 
L 2475 1100 
L 2475 150 
L 2000 150 
L 2000 1100 
z
M 2000 1525 
L 2000 3500 
L 600 1525 
L 2000 1525 
z
" transform="scale(0.015625)"/>
       </defs>
       <use xlink:href="#SimHei-34"/>
       <use xlink:href="#SimHei-30" x="50"/>
       <use xlink:href="#SimHei-30" x="100"/>
      </g>
     </g>
    </g>
    <g id="ytick_4">
     <g id="line2d_19">
      <path d="M 57.79375 176.892424 
L 458.68975 176.892424 
" clip-path="url(#pf0ff58abfa)" style="fill: none; stroke: #cbcbcb"/>
     </g>
     <g id="line2d_20"/>
     <g id="text_10">
      <!-- 600 -->
      <g transform="translate(33.29375 181.704924)scale(0.14 -0.14)">
       <defs>
        <path id="SimHei-36" d="M 250 1612 
Q 275 1975 387 2225 
Q 500 2475 725 2850 
L 1750 4450 
L 2325 4450 
L 1275 2800 
Q 1950 2975 2350 2750 
Q 2750 2525 2887 2237 
Q 3025 1950 3037 1612 
Q 3050 1275 2937 950 
Q 2825 625 2537 362 
Q 2250 100 1737 75 
Q 1225 50 862 262 
Q 500 475 362 862 
Q 225 1250 250 1612 
z
M 1025 787 
Q 1250 550 1625 525 
Q 2000 500 2250 775 
Q 2500 1050 2500 1575 
Q 2500 2100 2187 2300 
Q 1875 2500 1487 2450 
Q 1100 2400 925 2075 
Q 750 1750 775 1387 
Q 800 1025 1025 787 
z
" transform="scale(0.015625)"/>
       </defs>
       <use xlink:href="#SimHei-36"/>
       <use xlink:href="#SimHei-30" x="50"/>
       <use xlink:href="#SimHei-30" x="100"/>
      </g>
     </g>
    </g>
    <g id="ytick_5">
     <g id="line2d_21">
      <path d="M 57.79375 140.144566 
L 458.68975 140.144566 
" clip-path="url(#pf0ff58abfa)" style="fill: none; stroke: #cbcbcb"/>
     </g>
     <g id="line2d_22"/>
     <g id="text_11">
      <!-- 800 -->
      <g transform="translate(33.29375 144.957066)scale(0.14 -0.14)">
       <defs>
        <path id="SimHei-38" d="M 175 1375 
Q 175 1675 325 1962 
Q 475 2250 825 2425 
Q 525 2600 425 2812 
Q 325 3025 312 3300 
Q 300 3575 387 3775 
Q 475 3975 650 4150 
Q 825 4325 1037 4387 
Q 1250 4450 1500 4450 
Q 1750 4450 1950 4400 
Q 2150 4350 2375 4187 
Q 2600 4025 2700 3725 
Q 2800 3425 2687 3025 
Q 2575 2625 2100 2400 
Q 2525 2275 2700 2012 
Q 2875 1750 2875 1375 
Q 2875 1000 2762 775 
Q 2650 550 2512 400 
Q 2375 250 2137 162 
Q 1900 75 1537 75 
Q 1175 75 912 162 
Q 650 250 475 425 
Q 300 600 237 837 
Q 175 1075 175 1375 
z
M 687 1400 
Q 675 1100 787 875 
Q 900 650 1200 587 
Q 1500 525 1825 600 
Q 2150 675 2275 950 
Q 2400 1225 2362 1500 
Q 2325 1775 2050 1962 
Q 1775 2150 1450 2125 
Q 1125 2100 912 1900 
Q 700 1700 687 1400 
z
M 775 3350 
Q 775 3100 950 2875 
Q 1125 2650 1500 2650 
Q 1875 2650 2062 2875 
Q 2250 3100 2237 3412 
Q 2225 3725 2012 3875 
Q 1800 4025 1437 4000 
Q 1075 3975 925 3787 
Q 775 3600 775 3350 
z
" transform="scale(0.015625)"/>
       </defs>
       <use xlink:href="#SimHei-38"/>
       <use xlink:href="#SimHei-30" x="50"/>
       <use xlink:href="#SimHei-30" x="100"/>
      </g>
     </g>
    </g>
    <g id="ytick_6">
     <g id="line2d_23">
      <path d="M 57.79375 103.396707 
L 458.68975 103.396707 
" clip-path="url(#pf0ff58abfa)" style="fill: none; stroke: #cbcbcb"/>
     </g>
     <g id="line2d_24"/>
     <g id="text_12">
      <!-- 1000 -->
      <g transform="translate(26.29375 108.209207)scale(0.14 -0.14)">
       <defs>
        <path id="SimHei-31" d="M 1400 3600 
Q 1075 3275 575 2975 
L 575 3450 
Q 1200 3875 1600 4450 
L 1900 4450 
L 1900 150 
L 1400 150 
L 1400 3600 
z
" transform="scale(0.015625)"/>
       </defs>
       <use xlink:href="#SimHei-31"/>
       <use xlink:href="#SimHei-30" x="50"/>
       <use xlink:href="#SimHei-30" x="100"/>
       <use xlink:href="#SimHei-30" x="150"/>
      </g>
     </g>
    </g>
    <g id="ytick_7">
     <g id="line2d_25">
      <path d="M 57.79375 66.648848 
L 458.68975 66.648848 
" clip-path="url(#pf0ff58abfa)" style="fill: none; stroke: #cbcbcb"/>
     </g>
     <g id="line2d_26"/>
     <g id="text_13">
      <!-- 1200 -->
      <g transform="translate(26.29375 71.461348)scale(0.14 -0.14)">
       <use xlink:href="#SimHei-31"/>
       <use xlink:href="#SimHei-32" x="50"/>
       <use xlink:href="#SimHei-30" x="100"/>
       <use xlink:href="#SimHei-30" x="150"/>
      </g>
     </g>
    </g>
    <g id="ytick_8">
     <g id="line2d_27">
      <path d="M 57.79375 29.90099 
L 458.68975 29.90099 
" clip-path="url(#pf0ff58abfa)" style="fill: none; stroke: #cbcbcb"/>
     </g>
     <g id="line2d_28"/>
     <g id="text_14">
      <!-- 1400 -->
      <g transform="translate(26.29375 34.71349)scale(0.14 -0.14)">
       <use xlink:href="#SimHei-31"/>
       <use xlink:href="#SimHei-34" x="50"/>
       <use xlink:href="#SimHei-30" x="100"/>
       <use xlink:href="#SimHei-30" x="150"/>
      </g>
     </g>
    </g>
    <g id="text_15">
     <!-- 数量 -->
     <g transform="translate(20.19375 163.968)rotate(-90)scale(0.168 -0.168)">
      <defs>
       <path id="SimHei-6570" d="M 4525 4925 
Q 4475 4800 4400 4587 
Q 4325 4375 4175 3825 
L 5325 3825 
Q 5575 3825 5925 3850 
L 5925 3400 
Q 5650 3425 5500 3425 
Q 5500 3025 5362 2162 
Q 5225 1300 4875 675 
Q 5125 375 5437 137 
Q 5750 -100 6025 -200 
Q 5725 -425 5625 -625 
Q 5325 -450 5075 -225 
Q 4825 0 4575 325 
Q 4300 25 3987 -187 
Q 3675 -400 3200 -650 
Q 3075 -425 2850 -300 
Q 3225 -150 3650 125 
Q 4075 400 4300 675 
Q 4125 1025 3962 1425 
Q 3800 1825 3675 2475 
Q 3600 2275 3425 1950 
Q 3250 2050 3000 2150 
Q 3400 2850 3650 3675 
Q 3900 4500 3975 5100 
Q 4275 4975 4525 4925 
z
M 2100 2250 
Q 2000 2150 1875 1925 
L 3250 1925 
Q 3100 1300 2725 675 
Q 3125 525 3350 400 
Q 3225 225 3125 25 
Q 2900 175 2450 325 
Q 1950 -225 725 -650 
Q 600 -375 400 -275 
Q 1575 0 2000 475 
Q 1300 650 850 775 
Q 1000 1000 1250 1525 
Q 1000 1525 425 1500 
L 425 1950 
Q 900 1925 1400 1925 
Q 1500 2150 1550 2425 
Q 1825 2325 2100 2250 
z
M 1775 3950 
Q 1775 4550 1750 5100 
L 2250 5100 
Q 2225 4575 2225 3950 
Q 3075 3950 3425 3975 
L 3425 3525 
Q 3075 3550 2225 3550 
Q 2225 2825 2250 2425 
L 1750 2425 
Q 1775 2775 1775 3300 
Q 1650 3100 1300 2787 
Q 950 2475 650 2300 
Q 525 2525 275 2625 
Q 500 2700 875 2975 
Q 1250 3250 1450 3550 
Q 950 3550 500 3525 
L 500 3975 
Q 925 3950 1775 3950 
z
M 3975 3175 
Q 4200 1700 4600 1125 
Q 4850 1700 4937 2287 
Q 5025 2875 5050 3425 
L 4075 3425 
L 3975 3175 
z
M 1450 1000 
Q 1750 925 2275 800 
Q 2475 1050 2650 1525 
L 1725 1525 
Q 1600 1275 1450 1000 
z
M 3325 4825 
Q 3200 4625 3125 4450 
Q 3050 4275 2925 4025 
Q 2725 4125 2525 4175 
Q 2725 4500 2900 5000 
Q 3150 4875 3325 4825 
z
M 2575 3375 
Q 2900 3050 3200 2725 
Q 3050 2600 2875 2425 
Q 2525 2850 2300 3100 
Q 2450 3225 2575 3375 
z
M 925 5000 
Q 1275 4650 1500 4300 
L 1125 4075 
Q 950 4425 600 4725 
Q 825 4875 925 5000 
z
" transform="scale(0.015625)"/>
       <path id="SimHei-91cf" d="M 5250 2500 
Q 5225 2200 5225 1700 
Q 5225 1225 5250 950 
L 3425 950 
L 3425 625 
L 4575 625 
Q 5000 625 5375 650 
L 5375 275 
Q 5025 300 4575 300 
L 3425 300 
L 3425 -75 
L 5125 -75 
Q 5525 -75 5925 -50 
L 5925 -425 
Q 5525 -400 5125 -400 
L 1275 -400 
Q 900 -400 475 -425 
L 475 -50 
Q 925 -50 1275 -75 
L 2975 -75 
L 2975 300 
L 1725 300 
Q 1350 300 975 250 
L 975 650 
Q 1375 625 1725 625 
L 2975 625 
L 2975 950 
L 1150 950 
Q 1175 1375 1175 1775 
Q 1175 2175 1150 2500 
L 5250 2500 
z
M 5200 4950 
Q 5175 4575 5175 4250 
Q 5175 3925 5200 3400 
L 1200 3400 
Q 1225 3925 1225 4250 
Q 1225 4575 1200 4950 
L 5200 4950 
z
M 4900 3100 
Q 5500 3125 6000 3150 
L 6000 2750 
Q 5500 2775 4925 2775 
L 1650 2775 
Q 975 2775 325 2750 
L 325 3150 
Q 975 3125 1650 3100 
L 4900 3100 
z
M 4725 3700 
L 4725 4025 
L 1675 4025 
L 1675 3700 
L 4725 3700 
z
M 4725 4350 
L 4725 4650 
L 1675 4650 
L 1675 4350 
L 4725 4350 
z
M 4750 1875 
L 4750 2175 
L 3425 2175 
L 3425 1875 
L 4750 1875 
z
M 2975 1875 
L 2975 2175 
L 1650 2175 
L 1650 1875 
L 2975 1875 
z
M 2975 1275 
L 2975 1550 
L 1650 1550 
L 1650 1275 
L 2975 1275 
z
M 4750 1275 
L 4750 1550 
L 3425 1550 
L 3425 1275 
L 4750 1275 
z
" transform="scale(0.015625)"/>
      </defs>
      <use xlink:href="#SimHei-6570"/>
      <use xlink:href="#SimHei-91cf" x="100"/>
     </g>
    </g>
   </g>
   <g id="patch_3">
    <path d="M 76.016295 287.136 
L 126.285386 287.136 
L 126.285386 64.443977 
L 76.016295 64.443977 
z
" clip-path="url(#pf0ff58abfa)" style="fill: #336699"/>
   </g>
   <g id="patch_4">
    <path d="M 138.852659 287.136 
L 189.12175 287.136 
L 189.12175 137.020998 
L 138.852659 137.020998 
z
" clip-path="url(#pf0ff58abfa)" style="fill: #336699"/>
   </g>
   <g id="patch_5">
    <path d="M 201.689023 287.136 
L 251.958114 287.136 
L 251.958114 159.80467 
L 201.689023 159.80467 
z
" clip-path="url(#pf0ff58abfa)" style="fill: #336699"/>
   </g>
   <g id="patch_6">
    <path d="M 264.525386 287.136 
L 314.794477 287.136 
L 314.794477 141.430741 
L 264.525386 141.430741 
z
" clip-path="url(#pf0ff58abfa)" style="fill: #336699"/>
   </g>
   <g id="patch_7">
    <path d="M 327.36175 287.136 
L 377.630841 287.136 
L 377.630841 257.002756 
L 327.36175 257.002756 
z
" clip-path="url(#pf0ff58abfa)" style="fill: #336699"/>
   </g>
   <g id="patch_8">
    <path d="M 390.198114 287.136 
L 440.467205 287.136 
L 440.467205 250.571881 
L 390.198114 250.571881 
z
" clip-path="url(#pf0ff58abfa)" style="fill: #336699"/>
   </g>
   <g id="patch_9">
    <path d="M 76.016295 64.443977 
L 126.285386 64.443977 
L 126.285386 20.530286 
L 76.016295 20.530286 
z
" clip-path="url(#pf0ff58abfa)" style="fill: #ff6600"/>
   </g>
   <g id="patch_10">
    <path d="M 138.852659 137.020998 
L 189.12175 137.020998 
L 189.12175 99.721921 
L 138.852659 99.721921 
z
" clip-path="url(#pf0ff58abfa)" style="fill: #ff6600"/>
   </g>
   <g id="patch_11">
    <path d="M 201.689023 159.80467 
L 251.958114 159.80467 
L 251.958114 85.941474 
L 201.689023 85.941474 
z
" clip-path="url(#pf0ff58abfa)" style="fill: #ff6600"/>
   </g>
   <g id="patch_12">
    <path d="M 264.525386 141.430741 
L 314.794477 141.430741 
L 314.794477 122.689333 
L 264.525386 122.689333 
z
" clip-path="url(#pf0ff58abfa)" style="fill: #ff6600"/>
   </g>
   <g id="patch_13">
    <path d="M 327.36175 257.002756 
L 377.630841 257.002756 
L 377.630841 240.833698 
L 327.36175 240.833698 
z
" clip-path="url(#pf0ff58abfa)" style="fill: #ff6600"/>
   </g>
   <g id="patch_14">
    <path d="M 390.198114 250.571881 
L 440.467205 250.571881 
L 440.467205 234.402823 
L 390.198114 234.402823 
z
" clip-path="url(#pf0ff58abfa)" style="fill: #ff6600"/>
   </g>
   <g id="patch_15">
    <path d="M 57.79375 287.136 
L 57.79375 7.2 
" style="fill: none; stroke: #f0f0f0; stroke-width: 3; stroke-linejoin: miter; stroke-linecap: square"/>
   </g>
   <g id="patch_16">
    <path d="M 458.68975 287.136 
L 458.68975 7.2 
" style="fill: none; stroke: #f0f0f0; stroke-width: 3; stroke-linejoin: miter; stroke-linecap: square"/>
   </g>
   <g id="patch_17">
    <path d="M 57.79375 287.136 
L 458.68975 287.136 
" style="fill: none; stroke: #f0f0f0; stroke-width: 3; stroke-linejoin: miter; stroke-linecap: square"/>
   </g>
   <g id="patch_18">
    <path d="M 57.79375 7.2 
L 458.68975 7.2 
" style="fill: none; stroke: #f0f0f0; stroke-width: 3; stroke-linejoin: miter; stroke-linecap: square"/>
   </g>
   <g id="text_16">
    <!-- 1212 -->
    <g transform="translate(87.150841 179.727488)scale(0.14 -0.14)">
     <use xlink:href="#SimHei-31"/>
     <use xlink:href="#SimHei-32" x="50"/>
     <use xlink:href="#SimHei-31" x="100"/>
     <use xlink:href="#SimHei-32" x="150"/>
    </g>
   </g>
   <g id="text_17">
    <!-- 817 -->
    <g transform="translate(153.487205 216.015999)scale(0.14 -0.14)">
     <defs>
      <path id="SimHei-37" d="M 850 150 
Q 1300 2050 2425 3925 
L 275 3925 
L 275 4375 
L 2950 4375 
L 2950 3950 
Q 1775 2050 1400 150 
L 850 150 
z
" transform="scale(0.015625)"/>
     </defs>
     <use xlink:href="#SimHei-38"/>
     <use xlink:href="#SimHei-31" x="50"/>
     <use xlink:href="#SimHei-37" x="100"/>
    </g>
   </g>
   <g id="text_18">
    <!-- 693 -->
    <g transform="translate(216.323568 227.407835)scale(0.14 -0.14)">
     <defs>
      <path id="SimHei-39" d="M 800 75 
Q 1350 1000 1700 1750 
Q 1075 1650 662 1912 
Q 250 2175 162 2625 
Q 75 3075 175 3437 
Q 275 3800 487 4037 
Q 700 4275 1000 4375 
Q 1300 4475 1537 4475 
Q 1775 4475 2025 4375 
Q 2275 4275 2475 4075 
Q 2675 3875 2750 3662 
Q 2825 3450 2825 3112 
Q 2825 2775 2575 2250 
Q 2325 1725 1350 75 
L 800 75 
z
M 662 2875 
Q 700 2550 937 2337 
Q 1175 2125 1450 2150 
Q 1725 2175 1887 2300 
Q 2050 2425 2200 2725 
Q 2300 3100 2250 3362 
Q 2200 3625 1987 3800 
Q 1775 3975 1525 3975 
Q 1375 4000 1137 3900 
Q 900 3800 762 3500 
Q 625 3200 662 2875 
z
" transform="scale(0.015625)"/>
      <path id="SimHei-33" d="M 250 1225 
L 700 1300 
Q 800 975 1025 762 
Q 1250 550 1587 562 
Q 1925 575 2125 837 
Q 2325 1100 2300 1437 
Q 2275 1775 2037 1962 
Q 1800 2150 1275 2225 
L 1275 2550 
Q 1800 2600 2037 2825 
Q 2275 3050 2250 3412 
Q 2225 3775 1925 3937 
Q 1625 4100 1287 3975 
Q 950 3850 750 3275 
L 300 3350 
Q 450 3800 712 4100 
Q 975 4400 1425 4450 
Q 1875 4500 2212 4337 
Q 2550 4175 2687 3837 
Q 2825 3500 2725 3100 
Q 2625 2700 2150 2400 
Q 2500 2250 2687 1950 
Q 2875 1650 2812 1162 
Q 2750 675 2375 375 
Q 2000 75 1525 87 
Q 1050 100 700 387 
Q 350 675 250 1225 
z
" transform="scale(0.015625)"/>
     </defs>
     <use xlink:href="#SimHei-36"/>
     <use xlink:href="#SimHei-39" x="50"/>
     <use xlink:href="#SimHei-33" x="100"/>
    </g>
   </g>
   <g id="text_19">
    <!-- 793 -->
    <g transform="translate(279.159932 218.22087)scale(0.14 -0.14)">
     <use xlink:href="#SimHei-37"/>
     <use xlink:href="#SimHei-39" x="50"/>
     <use xlink:href="#SimHei-33" x="100"/>
    </g>
   </g>
   <g id="text_20">
    <!-- 164 -->
    <g transform="translate(341.996295 276.006878)scale(0.14 -0.14)">
     <use xlink:href="#SimHei-31"/>
     <use xlink:href="#SimHei-36" x="50"/>
     <use xlink:href="#SimHei-34" x="100"/>
    </g>
   </g>
   <g id="text_21">
    <!-- 199 -->
    <g transform="translate(404.832659 272.79144)scale(0.14 -0.14)">
     <use xlink:href="#SimHei-31"/>
     <use xlink:href="#SimHei-39" x="50"/>
     <use xlink:href="#SimHei-39" x="100"/>
    </g>
   </g>
   <g id="text_22">
    <!-- 239 -->
    <g transform="translate(90.650841 46.424631)scale(0.14 -0.14)">
     <use xlink:href="#SimHei-32"/>
     <use xlink:href="#SimHei-33" x="50"/>
     <use xlink:href="#SimHei-39" x="100"/>
    </g>
   </g>
   <g id="text_23">
    <!-- 203 -->
    <g transform="translate(153.487205 122.308959)scale(0.14 -0.14)">
     <use xlink:href="#SimHei-32"/>
     <use xlink:href="#SimHei-30" x="50"/>
     <use xlink:href="#SimHei-33" x="100"/>
    </g>
   </g>
   <g id="text_24">
    <!-- 402 -->
    <g transform="translate(216.323568 126.810572)scale(0.14 -0.14)">
     <use xlink:href="#SimHei-34"/>
     <use xlink:href="#SimHei-30" x="50"/>
     <use xlink:href="#SimHei-32" x="100"/>
    </g>
   </g>
   <g id="text_25">
    <!-- 102 -->
    <g transform="translate(279.159932 135.997537)scale(0.14 -0.14)">
     <use xlink:href="#SimHei-31"/>
     <use xlink:href="#SimHei-30" x="50"/>
     <use xlink:href="#SimHei-32" x="100"/>
    </g>
   </g>
   <g id="text_26">
    <!-- 88 -->
    <g transform="translate(345.496295 252.855727)scale(0.14 -0.14)">
     <use xlink:href="#SimHei-38"/>
     <use xlink:href="#SimHei-38" x="50"/>
    </g>
   </g>
   <g id="text_27">
    <!-- 88 -->
    <g transform="translate(408.332659 246.424852)scale(0.14 -0.14)">
     <use xlink:href="#SimHei-38"/>
     <use xlink:href="#SimHei-38" x="50"/>
    </g>
   </g>
   <g id="legend_1">
    <g id="patch_19">
     <path d="M 376.08975 58.2125 
L 448.88975 58.2125 
Q 451.68975 58.2125 451.68975 55.4125 
L 451.68975 17 
Q 451.68975 14.2 448.88975 14.2 
L 376.08975 14.2 
Q 373.28975 14.2 373.28975 17 
L 373.28975 55.4125 
Q 373.28975 58.2125 376.08975 58.2125 
z
" style="fill: #f0f0f0; opacity: 0.8; stroke: #cccccc; stroke-width: 0.5; stroke-linejoin: miter"/>
    </g>
    <g id="patch_20">
     <path d="M 378.88975 31.120312 
L 406.88975 31.120312 
L 406.88975 21.320312 
L 378.88975 21.320312 
z
" style="fill: #336699"/>
    </g>
    <g id="text_28">
     <!-- 正确 -->
     <g transform="translate(418.08975 31.120312)scale(0.14 -0.14)">
      <defs>
       <path id="SimHei-6b63" d="M 4825 4625 
Q 5300 4625 5675 4650 
L 5675 4150 
Q 5300 4175 4775 4175 
L 3575 4175 
L 3575 2600 
L 4850 2600 
Q 5250 2600 5550 2625 
L 5550 2150 
Q 5250 2175 4850 2175 
L 3575 2175 
L 3575 150 
L 4850 150 
Q 5375 150 5900 175 
L 5900 -325 
Q 5375 -300 4975 -300 
L 1175 -300 
Q 700 -300 375 -325 
L 375 175 
Q 700 150 1175 150 
L 1325 150 
L 1325 2350 
Q 1325 2800 1300 3125 
L 1875 3125 
Q 1850 2825 1850 2350 
L 1850 150 
L 3075 150 
L 3075 4175 
L 1625 4175 
Q 1150 4175 800 4150 
L 800 4650 
Q 1150 4625 1625 4625 
L 4825 4625 
z
" transform="scale(0.015625)"/>
       <path id="SimHei-786e" d="M 4975 -200 
Q 5250 -175 5362 -125 
Q 5475 -75 5475 125 
L 5475 975 
L 4625 975 
L 4625 -400 
L 4200 -400 
L 4200 975 
L 3500 975 
Q 3475 625 3325 237 
Q 3175 -150 2800 -600 
Q 2625 -350 2325 -325 
Q 2650 -50 2812 262 
Q 2975 575 3025 1000 
Q 3075 1425 3087 2187 
Q 3100 2950 3075 3425 
L 4250 3425 
Q 4475 3825 4650 4225 
L 3625 4225 
Q 3325 3875 2850 3250 
Q 2650 3425 2425 3500 
Q 2875 3975 3175 4425 
Q 3475 4875 3625 5300 
Q 3900 5175 4200 5100 
Q 4075 5025 3825 4575 
L 5350 4575 
Q 4900 3775 4750 3425 
L 5950 3425 
Q 5925 2975 5925 2450 
L 5925 -50 
Q 5950 -350 5775 -462 
Q 5600 -575 5175 -675 
Q 5150 -425 4975 -200 
z
M 200 1975 
Q 550 2300 850 2837 
Q 1150 3375 1300 4225 
Q 825 4225 525 4200 
L 525 4650 
Q 875 4625 1200 4625 
L 1900 4625 
Q 2325 4625 2625 4650 
L 2625 4200 
Q 2325 4225 1800 4225 
Q 1650 3525 1400 2925 
L 2525 2925 
Q 2500 2500 2500 2125 
L 2500 1075 
Q 2500 650 2525 125 
L 2075 125 
L 2075 600 
L 1350 600 
L 1350 -300 
L 900 -300 
Q 925 225 925 600 
L 925 2100 
Q 800 1900 625 1625 
Q 475 1825 200 1975 
z
M 2075 975 
L 2075 2575 
L 1350 2575 
L 1350 975 
L 2075 975 
z
M 5475 2350 
L 5475 3075 
L 4625 3075 
L 4625 2350 
L 5475 2350 
z
M 5475 1325 
L 5475 2000 
L 4625 2000 
L 4625 1325 
L 5475 1325 
z
M 4200 2350 
L 4200 3075 
L 3500 3075 
L 3500 2350 
L 4200 2350 
z
M 4200 1325 
L 4200 2000 
L 3500 2000 
L 3500 1325 
L 4200 1325 
z
" transform="scale(0.015625)"/>
      </defs>
      <use xlink:href="#SimHei-6b63"/>
      <use xlink:href="#SimHei-786e" x="100"/>
     </g>
    </g>
    <g id="patch_21">
     <path d="M 378.88975 50.8625 
L 406.88975 50.8625 
L 406.88975 41.0625 
L 378.88975 41.0625 
z
" style="fill: #ff6600"/>
    </g>
    <g id="text_29">
     <!-- 错误 -->
     <g transform="translate(418.08975 50.8625)scale(0.14 -0.14)">
      <defs>
       <path id="SimHei-9519" d="M 5600 2050 
Q 5575 1750 5575 775 
Q 5575 -175 5600 -550 
L 5125 -550 
L 5125 -225 
L 3400 -225 
L 3400 -625 
L 2925 -625 
Q 2950 100 2950 800 
Q 2950 1525 2925 2050 
L 5600 2050 
z
M 3350 4250 
Q 3350 4800 3325 5075 
L 3825 5075 
Q 3800 4575 3800 4250 
L 4700 4250 
Q 4700 4675 4675 5050 
L 5200 5050 
Q 5175 4775 5175 4250 
Q 5575 4250 5875 4275 
L 5875 3825 
Q 5525 3850 5175 3850 
L 5175 3025 
Q 5850 3025 6125 3050 
L 6125 2625 
Q 5825 2650 5325 2650 
L 3225 2650 
Q 3050 2650 2575 2625 
L 2575 3050 
Q 2850 3025 3350 3025 
L 3350 3850 
Q 3200 3850 2700 3825 
L 2700 4275 
Q 3150 4250 3350 4250 
z
M 2250 2750 
Q 1975 2775 1650 2775 
L 1650 2050 
Q 2125 2050 2500 2075 
L 2500 1650 
Q 2100 1675 1650 1675 
L 1650 450 
Q 2050 775 2300 1075 
Q 2400 800 2500 600 
Q 2225 375 1900 112 
Q 1575 -150 1275 -450 
Q 1100 -200 950 -25 
Q 1175 200 1175 475 
L 1175 1675 
Q 775 1675 450 1650 
L 450 2075 
Q 800 2050 1175 2050 
L 1175 2775 
Q 1000 2775 800 2750 
L 800 3200 
Q 1050 3175 1300 3175 
L 1825 3175 
Q 2025 3175 2250 3200 
L 2250 2750 
z
M 200 3325 
Q 650 3800 912 4275 
Q 1175 4750 1325 5150 
Q 1650 4975 1900 4850 
Q 1575 4525 1400 4175 
Q 1925 4175 2325 4200 
L 2325 3750 
Q 1875 3775 1175 3775 
Q 850 3325 525 2925 
Q 375 3125 200 3325 
z
M 5125 150 
L 5125 725 
L 3400 725 
L 3400 150 
L 5125 150 
z
M 5125 1100 
L 5125 1675 
L 3400 1675 
L 3400 1100 
L 5125 1100 
z
M 4700 3025 
L 4700 3850 
L 3800 3850 
L 3800 3025 
L 4700 3025 
z
" transform="scale(0.015625)"/>
       <path id="SimHei-8bef" d="M 4625 2750 
Q 5325 2750 5800 2775 
L 5800 2350 
Q 5300 2375 4625 2375 
L 4150 2375 
Q 4150 2125 4100 1650 
L 5025 1650 
Q 5575 1650 6100 1675 
L 6100 1225 
Q 5575 1250 5025 1250 
L 4250 1250 
Q 4575 600 5050 287 
Q 5525 -25 6125 -125 
Q 5900 -350 5775 -625 
Q 4875 -275 4450 175 
Q 4025 625 3900 1000 
Q 3600 325 3125 -62 
Q 2650 -450 2025 -675 
Q 1975 -450 1725 -200 
Q 2475 -75 2937 437 
Q 3400 950 3475 1250 
L 2975 1250 
Q 2400 1250 2025 1225 
L 2025 1675 
Q 2475 1650 2900 1650 
L 3600 1650 
Q 3650 2025 3650 2375 
L 3325 2375 
Q 2675 2375 2225 2350 
L 2225 2775 
Q 2700 2750 3150 2750 
L 4625 2750 
z
M 5425 4875 
Q 5400 4550 5400 4075 
Q 5400 3600 5425 3325 
L 2450 3325 
Q 2475 3575 2475 4050 
Q 2475 4525 2450 4875 
L 5425 4875 
z
M 1550 3325 
Q 1525 3000 1525 2500 
L 1525 675 
L 1900 1100 
Q 2025 875 2225 700 
Q 1675 300 1250 -325 
Q 1100 -100 825 50 
Q 1025 250 1050 500 
L 1050 2900 
Q 700 2900 325 2875 
L 325 3350 
Q 550 3325 750 3325 
L 1550 3325 
z
M 4975 3700 
L 4975 4475 
L 2900 4475 
L 2900 3700 
L 4975 3700 
z
M 975 5125 
Q 1150 5000 1900 4275 
Q 1725 4125 1550 3925 
Q 1150 4400 675 4775 
Q 875 4975 975 5125 
z
" transform="scale(0.015625)"/>
      </defs>
      <use xlink:href="#SimHei-9519"/>
      <use xlink:href="#SimHei-8bef" x="100"/>
     </g>
    </g>
   </g>
  </g>
 </g>
 <defs>
  <clipPath id="pf0ff58abfa">
   <rect x="57.79375" y="7.2" width="400.896" height="279.936"/>
  </clipPath>
 </defs>
</svg>
